<svg xmlns="http://www.w3.org/2000/svg" viewBox="0 0 512 512" width="512" height="512">
  <defs>
    <linearGradient id="bg" x1="0" y1="0" x2="0.45" y2="1">
      <stop offset="0" stop-color="#262017"/>
      <stop offset="1" stop-color="#0A0807"/>
    </linearGradient>
    <linearGradient id="gold" x1="0" y1="0" x2="1" y2="1">
      <stop offset="0" stop-color="#F2D690"/>
      <stop offset="0.5" stop-color="#D4A857"/>
      <stop offset="1" stop-color="#A67D34"/>
    </linearGradient>
    <pattern id="stripes" patternUnits="userSpaceOnUse" width="116" height="116" patternTransform="rotate(60)">
      <rect width="116" height="116" fill="#F3E9CE"/>
      <rect x="0" width="29" height="116" fill="#D63B3B"/>
      <rect x="58" width="29" height="116" fill="#1E5CB3"/>
    </pattern>
    <clipPath id="glass">
      <rect x="200" y="146" width="112" height="220" rx="56"/>
    </clipPath>
  </defs>

  <rect width="512" height="512" fill="url(#bg)"/>
  <rect x="36" y="36" width="440" height="440" rx="108" fill="none" stroke="#D4A857" stroke-opacity="0.22" stroke-width="4"/>

  <rect x="186" y="132" width="140" height="248" rx="70" fill="url(#gold)"/>
  <rect x="200" y="146" width="112" height="220" fill="url(#stripes)" clip-path="url(#glass)"/>
  <rect x="200" y="146" width="112" height="220" rx="56" fill="none" stroke="#A67D34" stroke-width="5"/>

  <rect x="249" y="118" width="14" height="26" fill="url(#gold)"/>
  <rect x="249" y="368" width="14" height="26" fill="url(#gold)"/>
  <ellipse cx="256" cy="138" rx="84" ry="28" fill="url(#gold)"/>
  <ellipse cx="256" cy="374" rx="84" ry="28" fill="url(#gold)"/>
  <circle cx="256" cy="104" r="23" fill="url(#gold)"/>
  <circle cx="256" cy="408" r="23" fill="url(#gold)"/>
</svg>
