<svg xmlns="http://www.w3.org/2000/svg" viewBox="0 0 512 512" width="512" height="512">
  <defs>
    <linearGradient id="bg" x1="0" y1="0" x2="0.45" y2="1">
      <stop offset="0" stop-color="#262017"/>
      <stop offset="1" stop-color="#0A0807"/>
    </linearGradient>
    <linearGradient id="gold" x1="0" y1="0" x2="1" y2="1">
      <stop offset="0" stop-color="#F2D690"/>
      <stop offset="0.5" stop-color="#D4A857"/>
      <stop offset="1" stop-color="#A67D34"/>
    </linearGradient>
  </defs>
  <rect width="512" height="512" fill="url(#bg)"/>
  <rect x="36" y="36" width="440" height="440" rx="108" fill="none" stroke="#D4A857" stroke-opacity="0.22" stroke-width="4"/>

  <g fill="url(#gold)">
    <rect x="196" y="116" width="9" height="40" rx="3"/>
    <rect x="212" y="116" width="9" height="40" rx="3"/>
    <rect x="228" y="116" width="9" height="40" rx="3"/>
    <rect x="244" y="116" width="9" height="40" rx="3"/>
    <rect x="260" y="116" width="9" height="40" rx="3"/>
    <rect x="276" y="116" width="9" height="40" rx="3"/>
    <rect x="292" y="116" width="9" height="40" rx="3"/>
    <rect x="308" y="116" width="9" height="40" rx="3"/>
  </g>
  <path d="M182 150 H332 L320 204 H194 Z" fill="url(#gold)"/>
  <rect x="196" y="200" width="120" height="232" rx="30" fill="url(#gold)"/>
  <rect x="214" y="252" width="84" height="14" rx="7" fill="#A67D34"/>
  <rect x="214" y="284" width="84" height="14" rx="7" fill="#A67D34"/>
</svg>
