<svg xmlns="http://www.w3.org/2000/svg" viewBox="0 0 512 512" width="512" height="512">
  <defs>
    <linearGradient id="bg" x1="0" y1="0" x2="0.45" y2="1">
      <stop offset="0" stop-color="#262017"/>
      <stop offset="1" stop-color="#0A0807"/>
    </linearGradient>
    <linearGradient id="gold" x1="0" y1="0" x2="1" y2="1">
      <stop offset="0" stop-color="#F2D690"/>
      <stop offset="0.5" stop-color="#D4A857"/>
      <stop offset="1" stop-color="#A67D34"/>
    </linearGradient>
  </defs>
  <rect width="512" height="512" fill="url(#bg)"/>
  <rect x="36" y="36" width="440" height="440" rx="108" fill="none" stroke="#D4A857" stroke-opacity="0.22" stroke-width="4"/>

  <g transform="rotate(-14 256 256)">
    <rect x="120" y="170" width="272" height="58" rx="22" fill="url(#gold)"/>
    <g fill="url(#gold)">
      <rect x="132" y="214" width="14" height="118" rx="7"/>
      <rect x="160" y="214" width="14" height="118" rx="7"/>
      <rect x="188" y="214" width="14" height="118" rx="7"/>
      <rect x="216" y="214" width="14" height="118" rx="7"/>
      <rect x="244" y="214" width="14" height="118" rx="7"/>
      <rect x="272" y="214" width="14" height="118" rx="7"/>
      <rect x="300" y="214" width="14" height="118" rx="7"/>
      <rect x="328" y="214" width="14" height="118" rx="7"/>
      <rect x="356" y="214" width="14" height="118" rx="7"/>
    </g>
  </g>
</svg>
