<svg xmlns="http://www.w3.org/2000/svg" viewBox="0 0 512 512" width="512" height="512">
  <defs>
    <linearGradient id="bg" x1="0" y1="0" x2="0.45" y2="1">
      <stop offset="0" stop-color="#262017"/>
      <stop offset="1" stop-color="#0A0807"/>
    </linearGradient>
    <linearGradient id="gold" x1="0" y1="0" x2="1" y2="1">
      <stop offset="0" stop-color="#F2D690"/>
      <stop offset="0.5" stop-color="#D4A857"/>
      <stop offset="1" stop-color="#A67D34"/>
    </linearGradient>
  </defs>
  <rect width="512" height="512" fill="url(#bg)"/>
  <rect x="36" y="36" width="440" height="440" rx="108" fill="none" stroke="#D4A857" stroke-opacity="0.22" stroke-width="4"/>

  <path fill="url(#gold)" d="M256 232
    C 232 206 188 198 150 206
    C 110 214 78 240 60 270
    C 84 258 110 254 134 262
    C 104 274 84 300 78 330
    C 110 300 146 290 184 296
    C 224 302 244 288 256 268
    C 268 288 288 302 328 296
    C 366 290 402 300 434 330
    C 428 300 408 274 378 262
    C 402 254 428 258 452 270
    C 434 240 402 214 362 206
    C 324 198 280 206 256 232 Z"/>
</svg>
