<svg xmlns="http://www.w3.org/2000/svg" viewBox="0 0 512 512" width="512" height="512">
  <defs>
    <linearGradient id="bg" x1="0" y1="0" x2="0.45" y2="1">
      <stop offset="0" stop-color="#262017"/>
      <stop offset="1" stop-color="#0A0807"/>
    </linearGradient>
    <linearGradient id="gold" x1="0" y1="0" x2="1" y2="1">
      <stop offset="0" stop-color="#F2D690"/>
      <stop offset="0.5" stop-color="#D4A857"/>
      <stop offset="1" stop-color="#A67D34"/>
    </linearGradient>
  </defs>
  <rect width="512" height="512" fill="url(#bg)"/>
  <rect x="36" y="36" width="440" height="440" rx="108" fill="none" stroke="#D4A857" stroke-opacity="0.22" stroke-width="4"/>

  <g transform="rotate(-43 256 256)">
    <path d="M232 250 L232 116 Q232 92 258 90 L312 86 Q330 85 330 100 Q330 116 312 118 L262 124 Q252 126 252 140 L252 250 Z" fill="url(#gold)"/>
    <rect x="244" y="106" width="10" height="128" rx="5" fill="#A67D34"/>
    <rect x="238" y="256" width="40" height="186" rx="20" fill="url(#gold)"/>
    <circle cx="258" cy="252" r="17" fill="url(#gold)"/>
    <circle cx="258" cy="252" r="7" fill="#1A150D"/>
  </g>
</svg>
