<svg xmlns="http://www.w3.org/2000/svg" viewBox="0 0 512 512" width="512" height="512">
  <defs>
    <linearGradient id="bg" x1="0" y1="0" x2="0.45" y2="1">
      <stop offset="0" stop-color="#262017"/>
      <stop offset="1" stop-color="#0A0807"/>
    </linearGradient>
    <linearGradient id="gold" x1="0" y1="0" x2="1" y2="1">
      <stop offset="0" stop-color="#F2D690"/>
      <stop offset="0.5" stop-color="#D4A857"/>
      <stop offset="1" stop-color="#A67D34"/>
    </linearGradient>
    <pattern id="stripes" patternUnits="userSpaceOnUse" width="40" height="40" patternTransform="rotate(60)">
      <rect width="40" height="40" fill="#F3E9CE"/>
      <rect x="0" width="10" height="40" fill="#D63B3B"/>
      <rect x="20" width="10" height="40" fill="#1E5CB3"/>
    </pattern>
    <clipPath id="poleClip"><rect x="234" y="200" width="44" height="108" rx="22"/></clipPath>
  </defs>
  <rect width="512" height="512" fill="url(#bg)"/>
  <rect x="36" y="36" width="440" height="440" rx="108" fill="none" stroke="#D4A857" stroke-opacity="0.22" stroke-width="4"/>

  <path d="M132 142 Q132 120 154 120 H358 Q380 120 380 142 V256 Q380 352 256 422 Q132 352 132 256 Z"
        fill="#15110B" stroke="url(#gold)" stroke-width="17"/>

  <rect x="224" y="192" width="64" height="124" rx="32" fill="url(#gold)"/>
  <rect x="234" y="200" width="44" height="108" fill="url(#stripes)" clip-path="url(#poleClip)"/>
  <rect x="234" y="200" width="44" height="108" rx="22" fill="none" stroke="#A67D34" stroke-width="3"/>
  <ellipse cx="256" cy="192" rx="40" ry="13" fill="url(#gold)"/>
  <ellipse cx="256" cy="316" rx="40" ry="13" fill="url(#gold)"/>
  <circle cx="256" cy="172" r="11" fill="url(#gold)"/>
  <circle cx="256" cy="336" r="11" fill="url(#gold)"/>
</svg>
